<svg width="683" height="346" viewBox="0 0 683 346" fill="none" xmlns="http://www.w3.org/2000/svg">
<path fill-rule="evenodd" clip-rule="evenodd" d="M562.502 26.4303C541.173 28.4178 507.443 0.0967099 481.649 0.0967099C457.343 0.0967099 439.982 25.4366 440.478 43.3236C439.486 67.1729 462.304 88.5379 482.641 87.5442C509.427 87.5442 529.764 54.7514 563.495 55.2483C597.225 54.7514 623.515 85.0599 625.003 116.859C627.979 147.168 593.753 169.526 592.265 196.854C592.761 219.709 610.618 239.584 636.412 241.074C654.269 240.577 681.551 228.156 682.047 197.35C683.039 177.973 651.293 138.721 653.773 116.859C653.773 91.0222 678.575 67.6698 682.047 42.8267C683.039 21.4617 661.709 1.09043 638.892 0.0967099C612.602 -1.89073 588.296 27.4241 562.502 26.4303Z" fill="#D13530"/>
<path d="M172.62 345.911V238.589C172.62 233.124 170.14 230.64 164.683 230.64H133.929V345.911H85.814V230.64H55.5559C50.0995 230.64 47.1233 233.124 47.1233 238.589V345.911H0V219.709C0 193.872 12.8969 181.947 38.1947 181.947H182.541C207.838 181.947 220.735 193.872 220.735 219.709V345.415H172.62V345.911Z" fill="white"/>
<path d="M284.227 345.911C258.433 345.911 245.041 333.49 245.041 308.647V219.709C245.041 193.872 257.937 181.947 283.235 181.947H355.656C380.954 181.947 393.851 193.872 393.851 219.709V306.659C393.851 331.999 380.954 344.918 356.152 344.918H284.227V345.911ZM345.736 238.589C345.736 233.124 342.759 230.64 337.303 230.64H301.589C296.132 230.64 292.66 233.124 292.66 238.589V288.276C292.66 294.238 295.636 297.716 301.589 297.716H337.303C342.759 297.716 345.736 294.735 345.736 288.772V238.589Z" fill="white"/>
<path d="M417.661 345.912V134.25H465.776V182.445H528.276C553.574 182.445 566.471 194.37 566.471 220.206V308.648C566.471 333.491 553.574 345.912 527.284 345.912H417.661ZM518.356 238.59C518.356 233.125 515.379 230.641 509.427 230.641H465.28V297.717H509.427C514.883 297.717 518.356 294.239 518.356 288.276V238.59Z" fill="white"/>
</svg>
